<?xml version="1.0" encoding="UTF-8" standalone="no"?>
<svg width="115px" height="129px" viewBox="0 0 115 129" version="1.1" xmlns="http://www.w3.org/2000/svg" xmlns:xlink="http://www.w3.org/1999/xlink">
    <!-- Generator: Sketch 3.6 (26304) - http://www.bohemiancoding.com/sketch -->
    <title>Group</title>
    <desc>Created with Sketch.</desc>
    <defs></defs>
    <g id="Page-2" stroke="none" stroke-width="1" fill="none" fill-rule="evenodd">
        <g id="180---iPhone-6-Plus" transform="translate(-33.000000, -26.000000)">
            <g id="Group" transform="translate(33.000000, 26.000000)">
                <ellipse id="Oval-1" fill="#494848" cx="13.8" cy="64.0570175" rx="13.8" ry="13.7265038"></ellipse>
                <path d="M51.9113711,54.906015 C50.2736553,50.0440623 46.3814878,47.2988871 45.1994769,46.0628484 C42.8450302,43.6007837 41.4,40.2702506 41.4,36.60401 C41.4,29.0230713 47.5784705,22.8775063 55.2,22.8775063 C62.8215295,22.8775063 69,29.0230713 69,36.60401 C69,40.2321371 67.5848581,43.5315004 65.2736567,45.9857821 C64.0793167,47.2540604 60.2271419,50.0199449 58.5503921,54.906015 C57.7096705,57.3558884 57.3454487,59.0600247 57.2578324,60.2700442 C56.9962854,63.88212 60.4491914,53.4068587 59.8,54.906015 C60.7708504,57.1844304 55.2,64.6690998 58.5503921,73.2080201 C59.888657,77.4459977 63.8819978,80.7394901 64.9304796,81.7765511 C67.4439993,84.2626916 69,87.7056144 69,91.5100251 C69,99.0909638 62.8215295,105.236529 55.2,105.236529 C47.5784705,105.236529 41.4,99.0909638 41.4,91.5100251 C41.4,87.5825283 43.0583136,84.0402887 45.7164705,81.5382697 C46.9773032,80.3514972 50.1240259,77.8488592 51.9113711,73.2080201 C55.2,64.6690998 49.9798994,74.7120801 50.6,73.2080201 C49.7147578,71.164106 55.2,64.6690998 51.9113711,54.906015 Z" id="Combined-Shape" fill="#F27064"></path>
                <path d="M97.9113711,32.0285088 C96.2736553,27.166556 92.3814878,24.4213809 91.1994769,23.1853421 C88.8450302,20.7232774 87.4,17.3927443 87.4,13.7265038 C87.4,6.14556507 93.5784705,0 101.2,0 C108.82153,0 115,6.14556507 115,13.7265038 C115,17.3546308 113.584858,20.6539941 111.273657,23.1082758 C110.079317,24.3765542 106.227142,27.1424387 104.550392,32.0285088 C103.70967,34.4783822 103.345449,36.1825185 103.257832,37.3925379 C102.996285,41.0046137 106.449191,30.5293525 105.8,32.0285088 C106.77085,34.3069241 101.2,41.7915935 104.550392,50.3305138 C105.888657,54.5684915 109.881998,57.8619838 110.93048,58.8990448 C113.443999,61.3851853 115,64.8281081 115,68.6325188 C115,76.2134575 108.82153,82.3590226 101.2,82.3590226 C93.5784705,82.3590226 87.4,76.2134575 87.4,68.6325188 C87.4,64.7050221 89.0583136,61.1627825 91.7164705,58.6607634 C92.9773032,57.4739909 96.1240259,54.971353 97.9113711,50.3305138 C101.2,41.7915935 95.9798994,51.8345739 96.6,50.3305138 C95.7147578,48.2865997 101.2,41.7915935 97.9113711,32.0285088 Z" id="Combined-Shape" fill="#0F8C8A"></path>
                <ellipse id="Oval-1-Copy-2" fill="#0F8C8A" cx="101.2" cy="114.387531" rx="13.8" ry="13.7265038"></ellipse>
            </g>
        </g>
    </g>
</svg>